PathFileType	4	(X/Y/Z)	Run_500 03
DataRate	CameraRate	NumFrames	NumMarkers	Units	OrigDataRate	OrigDataStartFrame	OrigNumFrames
100	100	6	42	mm	100	57	128
Frame#	Time	RASI			LPSI			RPSI			RTH1			RTH2			RTH3			LTH1			LTH2			LTH3			RTB1			RTB2			RTB3			LTB1			LTB2			LTB3			RCAL			RTOE			RMT5			LCAL			LTOE			LMT5			LACR			RACR			CLAV			C7			RUA1			RUA2			RUA3			RLEL			RMEL			LUA1			LUA2			LUA3			LLEL			LMEL			RFAsuperior			RFAradius			RFAulna			LFAsuperior			LFAradius			LFAulna			LASI			
		X1	Y1	Z1	X2	Y2	Z2	X3	Y3	Z3	X4	Y4	Z4	X5	Y5	Z5	X6	Y6	Z6	X7	Y7	Z7	X8	Y8	Z8	X9	Y9	Z9	X10	Y10	Z10	X11	Y11	Z11	X12	Y12	Z12	X13	Y13	Z13	X14	Y14	Z14	X15	Y15	Z15	X16	Y16	Z16	X17	Y17	Z17	X18	Y18	Z18	X19	Y19	Z19	X20	Y20	Z20	X21	Y21	Z21	X22	Y22	Z22	X23	Y23	Z23	X24	Y24	Z24	X25	Y25	Z25	X26	Y26	Z26	X27	Y27	Z27	X28	Y28	Z28	X29	Y29	Z29	X30	Y30	Z30	X31	Y31	Z31	X32	Y32	Z32	X33	Y33	Z33	X34	Y34	Z34	X35	Y35	Z35	X36	Y36	Z36	X37	Y37	Z37	X38	Y38	Z38	X39	Y39	Z39	X40	Y40	Z40	X41	Y41	Z41	X42	Y42	Z42	

47	0.85	738.465723	989.463441	-206.720221	561.706636	1062.423495	-372.897154	558.5776069999999	1060.387124	-288.012766	721.511961	872.243805	-139.922492	858.503737	798.777614	-154.174122	853.1913500000001	681.31263	-154.447368	651.120212	861.400767	-514.096625	701.20604	735.631557	-495.056384	599.375425	612.04686	-483.738833	825.4229329999999	516.8548950000001	-237.513534	711.2427269999999	526.737939	-189.305691	628.262263	482.185516	-261.428903	579.3797939999999	378.519292	-414.236704	483.70337	342.514641	-472.094263	445.890026	220.233063	-391.55409	462.9915	566.533934	-278.919617	522.079071	341.330385	-295.259465	480.398677	352.924221	-209.610267	253.481799	152.623862	-357.551787	464.248902	65.672012	-395.265732	411.421186	50.25404	-469.768531	755.259689	1485.110984	-524.103463	696.009806	1492.401452	-182.550392	790.168855	1451.554511	-316.617297	661.957778	1528.556027	-379.402788	608.348067	1408.382273	-104.708834	525.718893	1349.148406	-143.831552	537.7296700000001	1317.630011	-72.26312799999999	491.215536	1234.3327	-38.073707	464.511911	1223.220624	-112.24435	744.645884	1389.301864	-628.471268	693.525402	1296.724103	-637.227582	754.240621	1284.950606	-688.605092	784.412149	1210.906313	-729.446693	732.98287	1157.877051	-702.026894	501.997959	1153.311234	-23.948263	599.583941	976.317164	-55.323523	530.597417	961.7814980000001	-46.24298	880.109045	1173.914026	-654.287745	939.895123	1186.840534	-510.135496	951.933958	1125.519786	-539.086622	739.180644	965.278139	-462.060048	
48	0.86	738.996369	999.669683	-206.601383	565.268993	1067.304484	-375.002196	561.2198990000001	1065.906434	-290.840169	726.0681970000001	882.767623	-141.463077	866.2846960000001	814.937845	-155.091771	863.276343	697.251577	-157.193357	650.326826	864.93557	-513.55942	690.868895	737.281422	-494.313367	579.19547	620.261626	-483.662738	849.133256	522.885587	-237.173867	734.025755	521.060843	-189.441528	657.475376	464.801923	-259.938682	546.727308	387.672169	-417.059076	448.899141	355.532976	-474.004143	410.151533	231.404986	-395.694215	481.632359	526.815258	-278.516389	571.622442	311.410987	-290.652421	527.935964	318.699683	-205.782468	217.179382	171.915869	-361.096798	415.44493	65.348775	-394.921616	362.605791	51.34207	-469.242435	758.463571	1492.786998	-521.188529	691.419042	1499.152222	-181.353312	788.709333	1458.68439	-313.290126	661.870929	1534.134606	-378.728381	601.1233089999999	1417.501368	-105.573284	518.562059	1360.116664	-146.727252	528.008523	1328.180519	-74.484729	478.55234	1246.42667	-41.738375	453.01337	1236.282452	-116.40541	751.73239	1395.240666	-625.116354	702.351219	1301.82648	-634.4525	764.513219	1290.085669	-683.421888	795.826564	1215.824903	-722.729792	746.004782	1161.733551	-693.201451	487.940068	1165.410314	-27.524536	583.529639	987.4203670000001	-56.906504	514.364014	973.758736	-49.295551	891.822934	1188.202467	-644.3273809999999	948.720317	1212.543038	-500.547272	964.544888	1150.691317	-525.89872	741.500527	970.2219700000001	-459.02332	
49	0.87	740.427867	1009.55789	-206.50449	569.248997	1072.255633	-376.896306	564.419623	1071.976556	-293.684965	729.561074	893.721811	-142.29833	871.151269	829.376513	-155.70211	870.794746	711.348552	-159.572341	650.132943	868.904701	-513.242229	681.852396	740.270139	-493.491707	560.8111259999999	630.535899	-483.34682	871.251066	527.589123	-236.304089	756.4612519999999	513.949537	-189.07505	687.577533	446.225847	-257.349146	516.534061	399.417045	-419.749796	417.113023	370.654366	-476.082509	379.232506	243.791135	-401.612331	504.853341	485.307202	-277.641742	623.500096	283.850561	-286.525316	578.443999	286.161709	-202.258638	187.085277	193.449413	-365.074551	368.108552	65.241542	-394.586679	315.047071	53.225302	-468.720872	761.202029	1500.918857	-518.518493	687.335276	1506.1058	-180.215954	787.230207	1466.345891	-310.023095	661.804996	1539.839391	-377.899675	594.781843	1427.219458	-106.544839	512.487349	1371.871886	-149.858274	519.587894	1339.189021	-76.933494	467.244226	1258.880604	-45.666601	443.108433	1249.499082	-120.967829	758.4775100000001	1401.880281	-621.550812	710.336832	1307.936449	-631.822709	774.094828	1296.250814	-678.2476380000001	806.346273	1221.583007	-716.239337	757.632778	1166.93257	-684.753918	475.492124	1177.923219	-31.193851	569.406655	999.087192	-58.768803	500.11997	985.941968	-51.737833	901.697343	1202.825037	-634.669482	954.696785	1238.295018	-491.838115	973.629689	1175.955502	-513.050018	745.342044	974.150321	-455.945691	
50	0.88	742.394774	1018.806989	-206.554392	573.408144	1077.289133	-379.079636	567.216697	1078.295904	-296.245692	731.944372	905.132052	-141.74968	872.900307	841.503434	-155.923271	875.788178	723.126292	-161.66155	650.127303	873.028251	-513.279012	673.4957470000001	743.714589	-492.542123	544.311212	642.031253	-482.688123	891.662325	530.874389	-235.150304	778.819056	505.140483	-188.280638	718.743904	426.797799	-253.987856	489.442964	412.656438	-421.635699	389.299593	386.851049	-478.191392	353.129787	256.868674	-408.232322	532.797046	443.146108	-276.338845	676.610105	258.855382	-283.024771	631.185862	255.722897	-199.026855	164.093796	217.196825	-369.632773	323.611621	65.48107899999999	-394.738631	269.71569	57.114836	-468.430674	763.702261	1508.769685	-515.359049	683.981127	1512.770966	-179.327762	785.8670080000001	1473.865708	-306.865785	661.942796	1545.301653	-376.940226	589.494243	1436.905555	-107.850953	507.377248	1383.677224	-152.942778	512.583744	1350.342941	-79.43516200000001	457.310716	1271.173867	-49.670297	435.046544	1262.282438	-125.825046	764.8978059999999	1408.862215	-617.730826	717.37266	1314.884696	-629.562911	782.906697	1302.987167	-673.080967	815.970774	1227.848441	-710.224945	768.29587	1172.785814	-677.361274	464.547489	1190.223191	-34.848369	557.155895	1010.462019	-60.862946	487.780254	997.729244	-53.763618	909.8482739999999	1217.23467	-625.583941	957.908603	1263.136623	-484.058214	979.426559	1200.272887	-500.746574	749.398427	977.400725	-454.208155	
51	0.89	744.600221	1026.962253	-207.003556	577.413634	1082.433753	-381.917559	569.415433	1084.399748	-298.743262	733.536554	916.207232	-140.74056	871.934424	850.881048	-155.831781	878.267486	732.264782	-163.540672	649.980566	877.184997	-513.669842	665.645808	747.3270240000001	-491.536006	530.094993	653.649688	-481.859795	910.105422	532.603654	-233.844339	801.095941	494.615373	-187.30371	751.029724	407.371798	-250.757064	466.233824	426.067683	-422.502527	366.236547	402.854635	-480.109041	330.810835	270.260232	-413.983305	564.984699	401.175326	-274.919785	730.259859	236.189465	-279.808639	685.452801	227.656262	-195.850888	147.424769	242.821686	-374.712198	282.73033	67.17739400000001	-395.753291	227.202533	64.72284999999999	-468.485978	766.177249	1515.819291	-511.220492	681.503412	1518.784894	-178.584491	784.828204	1480.632454	-303.82722	662.445546	1550.279622	-375.829106	585.218988	1445.82475	-109.542073	503.148645	1395.018823	-155.639783	506.832848	1361.021333	-81.830906	448.735215	1282.749725	-53.52591	428.671735	1274.172476	-130.629614	770.976084	1415.866585	-613.681662	723.661968	1322.350684	-627.61119	790.93923	1309.848185	-668.079628	824.67807	1234.334833	-704.9162219999999	777.979567	1178.806397	-671.310692	455.043976	1201.751999	-38.321741	546.753599	1020.929653	-63.026641	477.348676	1008.618725	-55.645744	916.199593	1230.984637	-617.259893	958.508976	1285.999345	-477.138323	982.207062	1222.777474	-489.278984	752.698996	980.24446	-453.963917	
52	0.9	746.787612	1033.26616	-208.198069	580.941591	1087.504774	-385.114965	571.3806049999999	1089.996227	-301.555194	734.466845	925.356457	-140.617573	869.176947	857.359266	-155.628147	878.3667390000001	738.471894	-165.204469	649.601557	881.296771	-514.247092	658.988232	751.135706	-490.638367	518.982925	664.179831	-481.257569	926.366831	532.673168	-232.540555	822.916986	482.486844	-186.291838	784.047838	388.594126	-248.332792	447.453646	438.408693	-422.620883	348.12662	417.634646	-481.691154	310.77563	283.925325	-417.867396	600.587458	359.706882	-273.832423	784.144042	215.690583	-276.299473	740.5301930000001	202.310552	-192.365333	134.50133	269.74378	-379.899378	244.941721	72.565682	-397.290974	187.542753	77.49536999999999	-468.562607	768.7711420000001	1521.859483	-506.359492	679.94634	1523.784692	-177.691775	784.3081560000001	1486.221079	-300.857877	663.323877	1554.644013	-374.52486	581.688415	1453.458769	-111.251271	499.823513	1405.526776	-157.816301	502.006063	1370.471131	-84.05046299999999	441.498508	1292.99993	-57.065662	423.545881	1284.759431	-134.928228	776.801915	1422.622268	-609.510042	729.598307	1329.825453	-625.733532	798.195637	1316.448102	-663.5556340000001	832.434895	1240.731436	-700.4350480000001	786.3846579999999	1184.716393	-666.568274	446.951386	1212.002975	-41.431767	538.205318	1030.053547	-65.036986	468.855041	1018.140658	-57.49139	920.6480780000001	1243.63867	-609.794632	956.76611	1305.77457	-470.90843	982.426105	1242.654763	-478.978742	754.991566	982.765316	-454.292116	
